<svg xmlns="http://www.w3.org/2000/svg" viewBox="0 0 656.4 124.48" fill="#00263e"><defs><style>.cls-1{fill:none;}</style></defs><title>YETI Custom Shop logo</title><path class="cls-1" d="M578.86 82a2.15 2.15 0 0 0 1.46-.84 1.65 1.65 0 0 1-.77-1.46c0-1.39 2.65-4.88 4.74-5.16a30.26 30.26 0 0 0 2.86-11.44 2.12 2.12 0 0 0-2.16-1.6c-2.37 0-7.88 10.67-7.88 18.48a2 2 0 0 0 1.75 2.02zM137.55 92.32V78.51l-30.3.01v-8.19h25.7V57.52h-25.7v-8.07l29.44-.01V35.47l-47.05.02.01 56.84 47.9-.01zM610 81.58a1.71 1.71 0 0 0 1-.58c-1.21-.54-2-1.28-2-2 0-1.41 3.17-4.78 4.58-4.78.27 0 .54.07.81.07a34.86 34.86 0 0 0 2.29-10.65 1.54 1.54 0 0 0-1.21-1.48c-1.68 0-4.65 2-5.66 4.92-1.35 3.77-3 9.37-3 11.59-.11 1.83 2.25 2.91 3.19 2.91zM45.97 92.34l17.59-.01V68.52l22.1-33.03-19.39.01-11.48 19.16L43.33 35.5H23.84l22.13 33.02v23.82zM224.74 40.65a3 3 0 0 0 1 .62 3.2 3.2 0 0 0 1.19.21 3.11 3.11 0 0 0 1.18-.25 3 3 0 0 0 1-.66 3.24 3.24 0 0 0 .66-1 3.1 3.1 0 0 0 .25-1.21 2.78 2.78 0 0 0-.24-1.18 2.89 2.89 0 0 0-.66-.94 3.13 3.13 0 0 0-1-.62 3.32 3.32 0 0 0-1.19-.21 3.19 3.19 0 0 0-2.85 1.88 3 3 0 0 0-.25 1.19 3.1 3.1 0 0 0 .23 1.21 2.79 2.79 0 0 0 .68.96zm-.14-3.18a2.59 2.59 0 0 1 1.34-1.38 2.48 2.48 0 0 1 1-.21 2.54 2.54 0 0 1 1 .17 2.49 2.49 0 0 1 .79.53 2.15 2.15 0 0 1 .52.8 2.81 2.81 0 0 1 0 2 2.7 2.7 0 0 1-1.34 1.4 2.6 2.6 0 0 1-1 .22 2.43 2.43 0 0 1-1-.18 2.15 2.15 0 0 1-.79-.53 2.39 2.39 0 0 1-.53-.8 2.71 2.71 0 0 1-.18-1 2.81 2.81 0 0 1 .19-1.01zM220.73 92.3l-.01-56.85-17.59.02.01 56.83h17.59zM161.32 92.31l17.57-.01-.01-42.79 17.9-.01V35.47h-53.37v14.04h17.91v42.8z"/><path class="cls-1" d="M226.29 38.71h.59l1 1.51h.6l-1-1.54a1.27 1.27 0 0 0 .67-.27 1 1 0 0 0 .29-.71.92.92 0 0 0-.31-.75 1.47 1.47 0 0 0-.94-.23h-1.39v3.54h.56v-1.55zm0-1.57h1a.75.75 0 0 1 .25.08.48.48 0 0 1 .18.15.56.56 0 0 1 .06.29.68.68 0 0 1-.07.33.6.6 0 0 1-.22.18.93.93 0 0 1-.3.07h-.89v-1.1zM261.6 63.55l-17.3 50.39h401.55V10.54h-401.7zm282.85-29.7c2.16 0 7 3.56 7 4.74a8.59 8.59 0 0 1-.35 1.74c-1.67 5.86-4.92 17.58-4.92 17.58s4.46-3.14 8-3.14c2.72 0 6.55 3.28 6.55 5.86 0 3.28-4.18 16.67-4.18 20.36a1.27 1.27 0 0 0 1 1c2.09 0 5.86-4.25 9.27-10.53a2.88 2.88 0 0 1 1-1.12c2.3-7.78 7.55-15.19 13.81-15.19s13.53 5.09 13.53 9.41a31.85 31.85 0 0 1-3.42 13.11 5 5 0 0 0 1.81.21 5.92 5.92 0 0 0 3.73-1.62c2-7.9 4.11-15.61 5.15-19.26.2-.94 1.68-1.42 2.63-1.42 1.35 0 4.92 3.3 4.92 3.3s4-3.3 7.88-3.3c3 0 8.62 3.77 8.62 7.21a38.31 38.31 0 0 1-3.64 14.69l-2.83 5.12c-2 2.63-4.85 5.05-8 5.05a14.7 14.7 0 0 1-7.61-2.16s-3.42 13.3-3.89 16.54c-.2.88-1.82 1.48-2.9 1.48-1.68 0-5.93-2-5.93-3.71 0-1.12 1.87-8.9 4.1-17.68a11.77 11.77 0 0 1-4.73 1c-.84 0-1.81 0-2.79-.07-2.26 3.18-5.08 4.95-8.01 4.95-4.43 0-12-3.79-13.36-8.24-3 4.7-6.2 8.24-10 8.24-4.11 0-10.39-3.07-10.39-6.07 0-4.46 3.63-15.83 3.63-18.48A1.51 1.51 0 0 0 549 62c-1 0-4.11 2-5 5-1.81 5.93-4.74 17.22-5 19.39-.14 1.12-1.53 1.6-2.51 1.6-2.37 0-6.76-2.16-6.76-4 0-2.51 10.57-42.41 12.6-48.61a2.2 2.2 0 0 1 2.12-1.53zm-33.59 47.39c2.86 0 7-5 7-8.75 0-5.42-15.27-7.82-15.27-18 0-8.52 13-21.44 19.25-21.44 2.93 0 11.58 6.12 11.58 10 0 2.25-2.65 7.51-4.39 10.68-.42.7-.77 1.24-1.33 1.24-1.46 0-5.79-2.86-5.79-4.26a7 7 0 0 1 .63-2.09c1-2.71 2-5.34 2-7.43a1.37 1.37 0 0 0-1.41-1.19c-2 0-8.93 8.75-8.93 15.17 0 5.73 15.27 7.43 15.27 15.25 0 6.66-9.55 17.5-16.74 17.5-5.79 0-14.92-7.2-14.92-11.69 0-2.48 5.3-9.37 6.83-9.37.77 0 4.67 3.1 4.67 4.18s-1.39 4-1.39 6c.01 1.79 1.96 4.2 2.94 4.2zM321.24 55.5c2 0 7.45 3.2 7.45 4.46a6.46 6.46 0 0 1-.28 1.67c-.49 1.81-4.74 15.87-4.74 19.08a.64.64 0 0 0 .56.7c2.79 0 7.17-4.8 7.8-7 1.74-5.64 5.54-17.62 6.44-20.54a1.66 1.66 0 0 1 1.81-1.32c2.23 0 7.45 3.2 7.45 4.46a6.46 6.46 0 0 1-.28 1.67c-.63 1.81-6.51 19.15-6.51 22.84a.77.77 0 0 0 .56.77c1.52 0 3.65-1.94 5.93-5.15a4.16 4.16 0 0 1-.07-.63c0-1.93 1.82-3.7 3.49-4.93a1.88 1.88 0 0 1 1.37-1h.08c.73-.45 1.25-.71 1.25-.71s6.45-9.77 8.78-13.67a3.83 3.83 0 0 1 2.78-1.6c1.39 0 5.85 3.2 5.85 4.46 0 6.75 2.58 12.32 2.58 17.55a8.65 8.65 0 0 1-1.39 4.6 22.36 22.36 0 0 0 7.27-7.81c2.11-8.31 5.58-21.12 7.32-27.73-23.78-.09-43.54-.17-45-.19-2.17 0-12.83-6.09-12.83-6.44a1.83 1.83 0 0 1 1.4-1.25c.59 0 4.53.28 7 .31 1.48 0 22.73.63 51.08 1.33l.08-.31c1.32-4.87 2.3-8.36 2.79-9.89a1.84 1.84 0 0 1 1.81-1.53c2.44 0 7.45 3.41 7.45 4.67a8.29 8.29 0 0 1-.28 1.67l-1.53 5.08-.15.56c24.37.56 52.44 1.15 77.44 1.5 0 0 .87 4.85-2.89 4.82-2.09 0-41.17-.16-76.18-.3-2.59 8.95-9.11 32.3-9.11 33.83a2.72 2.72 0 0 0 2.51 2.72c2.06 0 5.12-3.35 8.19-8.55C400.2 64.94 406 55.5 413 55.5c6.13 0 13.51 5.08 13.51 9.4a31.8 31.8 0 0 1-3.38 13.1 5 5 0 0 0 1.81.21c4.18 0 7.45-6.41 7.45-6.41a3 3 0 0 1 1-1.12c1.44-5.69 3-11.48 3.66-13.71.35-1 1.18-1.46 2.71-1.46 1.74 0 4.74 3.41 4.74 3.41s5.85-3.41 9.61-3.41c3.34 0 6.41 3.9 6.41 3.9s6.41-3.9 10.31-3.9c2.92 0 7.17 2.86 7.17 5.43 0 3.27-4.32 16.85-4.32 20.54a.77.77 0 0 0 .56.77c2.09 0 5.85-4.18 9.26-10.44a2.24 2.24 0 0 1 1.5-1.27c.91 0 2.37 1.11 2.37 1.95a7.4 7.4 0 0 1-.9 2.44c-3.9 7-7.94 13.3-13 13.3-3.13 0-10-2.92-10-6.06 0-3.41 3.9-15.6 3.9-18.24a1.57 1.57 0 0 0-1.37-1.32 6 6 0 0 0-5.08 3.55c-1.46 4.25-4.59 18.52-4.94 20.47-.21 1-1.18 1.6-2.58 1.6-1.67 0-6.55-2.16-6.55-4s4.53-19.08 4.53-20.61a1.3 1.3 0 0 0-1.25-1 5.55 5.55 0 0 0-5.22 3.34c-1.81 4.6-5 18.66-5.5 20.68a2.49 2.49 0 0 1-2.58 1.6c-1.67 0-6.48-2.09-6.48-4a36.17 36.17 0 0 1 .84-4.31 13.39 13.39 0 0 1-8.72 3.54c-.84 0-1.81 0-2.79-.07-2.3 3.06-5.15 4.8-8.08 4.8-4 0-10.56-3.09-12.8-7-2.77 4-5.77 7-9.21 7-4.29 0-10.55-3-11.7-6.11a22.09 22.09 0 0 1-15.53 6.11c-4.63 0-9.72-3.3-12.61-6.78-2.73 4-5.64 6.78-9 6.78-3.13 0-8.08-2.58-8.56-4.6 0 0-6.27 4.6-9.19 4.6-4.32 0-9.68-4.32-9.68-7.24 0-3.27 4.66-19.77 6.06-24.16a2.07 2.07 0 0 1 1.86-1.3zM302.73 33c6.28 0 15.16 5.59 15.16 9.49 0 2.22-3 7.66-4.82 10.79a1.89 1.89 0 0 1-1.45 1.23c-1.3 0-6.28-2.76-6.28-4.21a6.41 6.41 0 0 1 .69-2.07c1.07-2.68 2.14-4.59 2.14-6.66a1.92 1.92 0 0 0-1.91-1.22c-8 0-15.54 21.82-15.54 32.46 0 4.36 3.29 7.5 5.66 7.5 2.6 0 5.51-3.75 9.11-8.27a2.19 2.19 0 0 1 1.68-1.04c1.15 0 5.21 3.06 5.21 4.13a4.3 4.3 0 0 1-.84 2c-1.68 2.68-3.6 6.12-6 8.5-1.38 1.38-5.28 1.76-8.19 1.76-7 0-18.29-7.65-18.29-15C279.07 58.94 291.32 33 302.73 33z"/><path class="cls-1" d="M360.52 82.1c1.25 0 2.86-1.25 2.86-3.76 0-5-.91-7.52-.91-11.91 0 0-4.67 6.27-4.67 9.75s1.88 5.92 2.72 5.92zM410.18 82.31a2.15 2.15 0 0 0 1.46-.84 1.65 1.65 0 0 1-.77-1.46c0-1.39 2.65-4.87 4.74-5.15a30.22 30.22 0 0 0 2.86-11.42 2.12 2.12 0 0 0-2.16-1.6c-2.37 0-7.87 10.65-7.87 18.45a2 2 0 0 0 1.74 2.02z"/><path d="M240.68 0H0v124.48h656.4V0H240.68zm-16.59 37.31a3.23 3.23 0 0 1 2.85-1.88 3.32 3.32 0 0 1 1.19.21 3.13 3.13 0 0 1 1 .62 2.89 2.89 0 0 1 .66.94 2.78 2.78 0 0 1 .24 1.18 3.1 3.1 0 0 1-.25 1.21 3.24 3.24 0 0 1-.66 1 3 3 0 0 1-1 .66 3.11 3.11 0 0 1-1.18.25 3.2 3.2 0 0 1-1.19-.21 3 3 0 0 1-1-.62 2.79 2.79 0 0 1-.67-.94 3.1 3.1 0 0 1-.23-1.21 3 3 0 0 1 .24-1.21zm-3.37-1.85V92.3h-17.58V35.47zm-77.31 0h53.37v14h-17.9V92.3h-17.56V49.51h-17.91v-14zm-6.72 0v14h-29.44v8.08H133v12.8h-25.7v8.19h30.3v13.79H89.65V35.49zm-93.36 0l11.46 19.2L66.27 35.5h19.39l-22.1 33v23.83H46V68.52l-22.14-33h19.47zm602.52 78.44H244.3l17.3-50.39-17.44-53h401.7v103.42z"/><path d="M225.11 40.33a2.15 2.15 0 0 0 .79.53 2.43 2.43 0 0 0 1 .18 2.6 2.6 0 0 0 1-.22 2.7 2.7 0 0 0 1.34-1.4 2.81 2.81 0 0 0 0-2 2.15 2.15 0 0 0-.52-.8 2.49 2.49 0 0 0-.79-.53 2.54 2.54 0 0 0-1-.17 2.48 2.48 0 0 0-1 .21 2.59 2.59 0 0 0-1.34 1.38 2.81 2.81 0 0 0-.2 1 2.71 2.71 0 0 0 .18 1 2.39 2.39 0 0 0 .54.82zm.63-3.62h1.39a1.47 1.47 0 0 1 .94.23.92.92 0 0 1 .31.75 1 1 0 0 1-.29.71 1.27 1.27 0 0 1-.67.27l1 1.54h-.6l-1-1.51h-.59v1.52h-.56z"/><path d="M227.23 38.24a.93.93 0 0 0 .3-.07.6.6 0 0 0 .22-.18.68.68 0 0 0 .07-.33.56.56 0 0 0-.06-.29.48.48 0 0 0-.18-.15.75.75 0 0 0-.25-.08h-1v1.12h.58zM504.65 66.91c-1.53 0-6.83 6.89-6.83 9.37 0 4.49 9.18 11.72 14.92 11.72 7.18 0 16.74-10.84 16.74-17.5 0-7.82-15.27-9.52-15.27-15.25 0-6.43 6.9-15.17 8.93-15.17a1.37 1.37 0 0 1 1.32 1.08c0 2.09-1 4.72-2 7.43a7 7 0 0 0-.63 2.09c0 1.39 4.32 4.26 5.79 4.26.56 0 .91-.54 1.33-1.24 1.74-3.17 4.39-8.44 4.39-10.68 0-3.87-8.65-10-11.58-10-6.28 0-19.25 12.93-19.25 21.44 0 10.22 15.27 12.62 15.27 18 0 3.72-4.11 8.75-7 8.75-1 0-2.93-2.4-2.93-4.1 0-2 1.39-5 1.39-6s-3.82-4.2-4.59-4.2zM536.45 88c1 0 2.37-.49 2.51-1.6.28-2.16 3.21-13.46 5-19.39.91-2.93 4-5 5-5a1.51 1.51 0 0 1 1.12 1.39c0 2.65-3.63 14-3.63 18.48 0 3 6.28 6.07 10.39 6.07 3.8 0 7-3.54 10-8.24 1.37 4.45 8.93 8.24 13.36 8.24 2.93 0 5.79-1.74 8.09-4.81 1 .07 2 .07 2.79.07a11.77 11.77 0 0 0 4.73-1c-2.23 8.78-4.1 16.55-4.1 17.68 0 1.75 4.24 3.71 5.93 3.71 1.08 0 2.7-.61 2.9-1.48.47-3.23 3.89-16.54 3.89-16.54a14.7 14.7 0 0 0 7.61 2.16c3.17 0 6-2.43 8-5.05l2.83-5.12a38.31 38.31 0 0 0 3.64-14.69c0-3.44-5.66-7.21-8.62-7.21-3.91 0-7.88 3.3-7.88 3.3s-3.57-3.3-4.92-3.3c-.94 0-2.43.47-2.63 1.42-1 3.65-3.11 11.36-5.15 19.26a5.92 5.92 0 0 1-3.73 1.62 5 5 0 0 1-1.81-.21 31.85 31.85 0 0 0 3.42-13.11c0-4.32-7.39-9.41-13.53-9.41s-11.46 7.37-13.76 15.15a2.88 2.88 0 0 0-1 1.12c-3.46 6.28-7.22 10.49-9.32 10.49a1.27 1.27 0 0 1-1-1c0-3.7 4.18-17.08 4.18-20.36 0-2.58-3.83-5.86-6.55-5.86-3.56 0-8 3.14-8 3.14s3.25-11.73 4.92-17.58a8.59 8.59 0 0 0 .35-1.74c0-1.19-4.88-4.74-7-4.74a2.2 2.2 0 0 0-2.16 1.46c-2 6.21-12.6 46.1-12.6 48.61-.03 1.88 4.36 4.07 6.73 4.07zm73.28-20.88c1-3 4-4.92 5.66-4.92a1.54 1.54 0 0 1 1.21 1.48 34.86 34.86 0 0 1-2.29 10.65c-.27 0-.54-.07-.81-.07-1.41 0-4.58 3.37-4.58 4.78 0 .74.81 1.48 2 2a1.71 1.71 0 0 1-.94.54c-.94 0-3.3-1.08-3.3-2.9.02-2.22 1.71-7.81 3.06-11.59zM585 61.54a2.12 2.12 0 0 1 2.16 1.6 30.26 30.26 0 0 1-2.86 11.44c-2.09.28-4.74 3.77-4.74 5.16a1.65 1.65 0 0 0 .77 1.46 2.15 2.15 0 0 1-1.46.84 2 2 0 0 1-1.74-2c-.01-7.83 5.5-18.5 7.87-18.5zM297.37 87.34c2.91 0 6.81-.38 8.19-1.76 2.37-2.37 4.29-5.82 6-8.5a4.3 4.3 0 0 0 .84-2c0-1.07-4.06-4.13-5.21-4.13a2.19 2.19 0 0 0-1.71 1.05c-3.6 4.52-6.51 8.27-9.11 8.27-2.37 0-5.66-3.14-5.66-7.5 0-10.64 7.58-32.46 15.54-32.46a1.92 1.92 0 0 1 1.91 1.22c0 2.07-1.07 4-2.14 6.66a6.41 6.41 0 0 0-.69 2.07c0 1.45 5 4.21 6.28 4.21a1.89 1.89 0 0 0 1.45-1.23c1.84-3.14 4.82-8.57 4.82-10.79 0-3.9-8.88-9.49-15.16-9.49-11.41 0-23.65 25.95-23.65 39.34 0 7.38 11.26 15.04 18.3 15.04zM323 88.23c2.92 0 9.19-4.6 9.19-4.6.49 2 5.43 4.6 8.56 4.6 3.35 0 6.26-2.83 9-6.78 2.89 3.48 8 6.78 12.61 6.78a22.09 22.09 0 0 0 15.53-6.11c1.15 3.15 7.42 6.11 11.7 6.11 3.45 0 6.45-2.92 9.21-7 2.24 3.88 8.8 7 12.8 7 2.92 0 5.78-1.74 8.08-4.8 1 .07 1.95.07 2.79.07a13.39 13.39 0 0 0 8.68-3.5 36.17 36.17 0 0 0-.84 4.31c0 1.88 4.8 4 6.48 4a2.49 2.49 0 0 0 2.58-1.6c.49-2 3.69-16.08 5.5-20.68a5.55 5.55 0 0 1 5.22-3.34 1.3 1.3 0 0 1 1.25 1c0 1.53-4.53 18.8-4.53 20.61s4.87 4 6.55 4c1.39 0 2.37-.63 2.58-1.6.35-2 3.48-16.22 4.94-20.47a6 6 0 0 1 5.12-3.62 1.57 1.57 0 0 1 1.46 1.32c0 2.65-3.9 14.83-3.9 18.24 0 3.13 6.89 6.06 10 6.06 5 0 9.05-6.34 13-13.3a7.4 7.4 0 0 0 .9-2.44c0-.84-1.46-1.95-2.37-1.95a2.24 2.24 0 0 0-1.53 1.25c-3.41 6.27-7.17 10.44-9.26 10.44a.77.77 0 0 1-.56-.77c0-3.69 4.32-17.27 4.32-20.54 0-2.58-4.25-5.43-7.17-5.43-3.9 0-10.31 3.9-10.31 3.9s-3.06-3.9-6.41-3.9c-3.76 0-9.61 3.41-9.61 3.41s-3-3.41-4.74-3.41c-1.53 0-2.37.49-2.71 1.46-.69 2.23-2.23 8-3.66 13.71a3 3 0 0 0-1 1.12s-3.27 6.41-7.45 6.41a5 5 0 0 1-1.81-.21 31.8 31.8 0 0 0 3.41-13.09c0-4.32-7.38-9.4-13.51-9.4-7.06 0-12.83 9.43-14.52 18.19-3.07 5.2-6.13 8.55-8.19 8.55a2.72 2.72 0 0 1-2.51-2.72c0-1.53 6.52-24.88 9.11-33.83 35 .13 74.1.28 76.18.3 3.76 0 2.89-4.82 2.89-4.82-25-.34-53.08-.94-77.42-1.52l.15-.56 1.49-5.08a8.29 8.29 0 0 0 .28-1.67c0-1.25-5-4.67-7.45-4.67a1.84 1.84 0 0 0-1.81 1.53c-.49 1.53-1.46 5-2.79 9.89l-.08.31c-28.35-.7-49.59-1.31-51.08-1.33-2.47 0-6.41-.3-7-.31a1.83 1.83 0 0 0-1.4 1.25c0 .35 10.65 6.41 12.83 6.44 1.44 0 21.2.1 45 .19-1.74 6.6-5.21 19.41-7.32 27.73a22.36 22.36 0 0 1-7.27 7.81 8.65 8.65 0 0 0 1.39-4.6c0-5.22-2.58-10.79-2.58-17.55 0-1.25-4.46-4.46-5.85-4.46a3.83 3.83 0 0 0-2.78 1.6c-2.37 3.9-8.77 13.65-8.77 13.65s-.52.26-1.25.71h-.08a1.88 1.88 0 0 0-1.37 1c-1.67 1.23-3.49 3-3.49 4.93a4.16 4.16 0 0 0 .07.63c-2.28 3.21-4.41 5.15-5.93 5.15a.77.77 0 0 1-.56-.77c0-3.69 5.88-21 6.51-22.84a6.46 6.46 0 0 0 .28-1.67c0-1.25-5.22-4.46-7.45-4.46a1.66 1.66 0 0 0-1.81 1.32c-.91 2.92-4.7 14.9-6.44 20.54-.63 2.23-5 7-7.8 7a.64.64 0 0 1-.56-.7c0-3.2 4.25-17.27 4.74-19.08a6.46 6.46 0 0 0 .28-1.67c0-1.25-5.43-4.46-7.45-4.46a2.07 2.07 0 0 0-1.88 1.32c-1.4 4.45-6.1 20.96-6.1 24.24 0 2.91 5.36 7.23 9.7 7.23zm93.33-26.39a2.12 2.12 0 0 1 2.16 1.6 30.22 30.22 0 0 1-2.86 11.42c-2.09.28-4.74 3.76-4.74 5.15a1.65 1.65 0 0 0 .77 1.46 2.15 2.15 0 0 1-1.46.84 2 2 0 0 1-1.74-2c-.02-7.82 5.48-18.47 7.85-18.47zm-53.84 4.6c0 4.39.91 6.89.91 11.91 0 2.51-1.6 3.76-2.86 3.76-.84 0-2.72-2.44-2.72-5.92s4.65-9.75 4.65-9.75z"/></svg>
